<?xml version="1.0" standalone="no"?>
<!DOCTYPE svg PUBLIC "-//W3C//DTD SVG 20010904//EN"
 "http://www.w3.org/TR/2001/REC-SVG-20010904/DTD/svg10.dtd">
<svg version="1.0" xmlns="http://www.w3.org/2000/svg"
 width="260.000000pt" height="260.000000pt" viewBox="0 0 260.000000 260.000000"
 preserveAspectRatio="xMidYMid meet">

<g transform="translate(0.000000,260.000000) scale(0.100000,-0.100000)"
fill="#000000" stroke="none">
<path d="M2163 2510 c-40 -24 -71 -75 -40 -66 6 3 34 7 60 10 43 5 51 3 73
-21 15 -16 24 -38 24 -59 0 -44 14 -50 39 -18 11 14 25 23 31 19 15 -9 12 50
-4 90 -26 62 -118 85 -183 45z"/>
<path d="M2107 2350 c3 -11 12 -20 19 -20 17 0 18 12 2 28 -18 18 -27 15 -21
-8z"/>
<path d="M2172 2357 c-16 -9 -19 -16 -12 -23 17 -17 60 -5 60 17 0 22 -15 24
-48 6z"/>
<path d="M2330 2336 c0 -9 5 -16 10 -16 6 0 10 4 10 9 0 6 -4 13 -10 16 -5 3
-10 -1 -10 -9z"/>
<path d="M2186 2287 c3 -10 9 -15 12 -12 3 3 0 11 -7 18 -10 9 -11 8 -5 -6z"/>
<path d="M2158 2263 c7 -3 16 -2 19 1 4 3 -2 6 -13 5 -11 0 -14 -3 -6 -6z"/>
<path d="M2035 2238 c-38 -11 -88 -25 -109 -31 -24 -7 -63 -34 -104 -72 l-65
-61 36 -36 c40 -41 38 -47 -28 -68 -22 -7 -67 -26 -100 -43 -33 -17 -76 -33
-95 -37 l-35 -6 38 -5 c22 -3 49 0 62 7 13 7 39 15 57 19 18 4 55 18 82 30 46
22 53 23 89 10 22 -7 45 -11 52 -9 7 3 16 1 19 -5 11 -18 95 -50 147 -57 27
-4 49 -9 49 -13 0 -13 -71 -2 -127 19 -32 12 -80 30 -107 41 l-49 19 -23 -25
c-22 -24 -22 -25 -3 -38 25 -18 14 -28 -18 -16 -33 12 -42 3 -17 -16 18 -14
17 -14 -9 -5 -39 14 -40 13 -18 -17 11 -16 24 -52 30 -82 12 -56 9 -83 -4 -34
-6 24 -8 25 -16 10 -6 -9 -16 -17 -24 -17 -9 0 -12 -6 -9 -15 4 -8 2 -15 -4
-15 -5 0 -13 11 -16 25 -6 25 -26 35 -26 14 0 -7 -10 -5 -25 5 -13 9 -33 16
-43 16 -10 0 -22 4 -27 9 -6 5 -32 12 -60 16 -27 3 -72 9 -100 13 -63 8 -128
8 -230 -1 l-80 -8 44 23 c25 12 39 24 33 26 -13 4 -129 -11 -247 -32 l-70 -13
50 -6 c28 -4 112 -8 187 -9 76 -2 138 -7 138 -11 0 -5 4 -6 9 -2 6 3 15 -4 21
-15 6 -11 16 -20 23 -20 19 0 236 -111 293 -150 75 -51 113 -70 126 -65 7 3
23 -12 36 -33 l23 -37 -28 32 c-25 29 -29 30 -42 16 -12 -13 -12 -17 3 -25 9
-5 14 -13 12 -17 -3 -4 4 -32 15 -62 11 -30 25 -66 31 -81 5 -16 15 -25 21
-21 7 4 8 0 4 -11 -4 -10 2 -38 14 -64 12 -26 23 -51 25 -57 1 -5 14 -36 27
-67 22 -54 25 -56 41 -40 16 16 18 16 32 -2 18 -26 19 -77 0 -70 -8 3 -11 14
-9 28 3 13 -1 27 -8 31 -9 6 -11 -2 -6 -35 3 -25 1 -50 -6 -62 -10 -15 -9 -21
3 -28 8 -5 10 -10 4 -10 -6 0 -11 -7 -11 -15 0 -20 3 -19 28 6 27 27 33 20 15
-21 -8 -20 -15 -28 -18 -19 -15 43 -76 -83 -81 -169 -1 -22 -6 -31 -15 -27 -9
3 -11 -1 -7 -15 4 -11 2 -20 -3 -20 -4 0 -9 -25 -10 -55 -1 -30 3 -55 8 -55 5
0 3 -17 -4 -37 -13 -38 -36 -49 -62 -30 -7 4 -14 1 -18 -9 -9 -22 2 -35 26
-32 15 2 22 -3 24 -20 4 -20 1 -21 -15 -12 -11 5 -27 10 -37 10 -14 0 -14 -3
-4 -15 11 -13 7 -22 -24 -54 l-37 -38 83 -91 c97 -106 138 -139 186 -148 65
-13 81 41 19 64 -31 11 -34 16 -47 89 -20 103 -19 109 7 105 26 -4 40 37 108
297 43 167 56 249 36 236 -5 -3 -13 -1 -16 5 -5 8 -11 7 -21 -1 -12 -10 -13
-9 -8 5 3 9 14 16 24 16 15 0 16 5 7 43 -5 23 -14 50 -19 61 -7 14 -5 22 9 33
19 15 19 16 -4 39 -13 13 -26 37 -29 53 -4 16 -15 33 -28 38 -15 7 -21 19 -21
42 0 17 3 31 8 31 4 0 7 -9 7 -19 0 -11 5 -23 10 -26 7 -4 9 11 5 47 -4 29 -8
77 -9 107 -2 37 -8 57 -19 66 -10 7 -15 19 -11 29 3 9 2 16 -4 16 -5 0 -9 11
-9 25 0 14 4 25 9 25 5 0 7 4 4 9 -6 10 42 33 54 26 13 -8 18 18 8 38 -6 12
-5 17 5 17 8 0 22 9 33 21 14 15 15 20 4 17 -9 -2 -14 3 -12 12 3 11 -1 11
-16 -3 -26 -24 -36 -21 -18 5 18 25 21 42 6 33 -5 -3 -10 -1 -10 6 0 7 -8 22
-17 33 -10 12 3 2 27 -21 25 -23 57 -45 72 -48 16 -4 25 -11 22 -16 -9 -15 53
-10 65 4 6 8 9 28 7 45 -2 18 0 32 3 32 14 0 211 282 211 302 0 4 6 22 14 40
8 18 17 42 21 52 4 14 9 16 17 8 8 -8 4 -24 -15 -61 l-26 -50 42 25 c23 13 58
24 77 24 29 0 38 6 53 31 33 59 25 74 -60 110 -113 47 -206 78 -215 73 -4 -3
-8 -16 -8 -29 0 -13 -8 -31 -17 -41 -17 -16 -18 -16 -21 -1 -2 9 -10 17 -19
17 -9 0 -13 6 -9 15 4 12 -3 13 -39 9 -41 -6 -44 -5 -59 24 -9 17 -16 40 -16
52 0 23 5 23 -85 -2z m30 -85 c-54 -6 -73 -13 -89 -29 -15 -14 -16 -13 -16 6
0 12 3 19 8 17 4 -3 16 -1 27 4 11 4 38 7 60 7 31 -1 33 -2 10 -5z m175 -39
c0 -9 -5 -14 -12 -12 -18 6 -21 28 -4 28 9 0 16 -7 16 -16z m-246 -19 c-4 -8
-11 -15 -16 -15 -6 0 -5 6 2 15 7 8 14 15 16 15 2 0 1 -7 -2 -15z m-37 -17
c-3 -8 -6 -5 -6 6 -1 11 2 17 5 13 3 -3 4 -12 1 -19z m410 -4 c-3 -3 -12 -4
-19 -1 -8 3 -5 6 6 6 11 1 17 -2 13 -5z m38 -4 c3 -5 -1 -10 -9 -10 -9 0 -16
5 -16 10 0 6 4 10 9 10 6 0 13 -4 16 -10z m-380 -10 c-3 -5 -17 -10 -31 -10
-14 0 -22 4 -19 10 3 6 17 10 31 10 14 0 22 -4 19 -10z m43 -77 c-10 -2 -26
-2 -35 0 -10 3 -2 5 17 5 19 0 27 -2 18 -5z m17 -42 c17 -1 18 -3 5 -11 -13
-9 -13 -11 0 -20 21 -14 9 -12 -39 5 -22 8 -41 12 -41 9 0 -3 -5 -2 -11 2 -8
5 -8 9 1 14 10 6 24 7 85 1z m-75 -97 c19 -7 31 -13 26 -14 -5 0 -3 -7 4 -15
21 -25 -3 -17 -54 20 -27 19 -55 35 -62 35 -7 0 -16 5 -19 11 -4 5 10 2 32 -7
21 -9 54 -23 73 -30z m-160 -46 c0 -12 -6 -9 -26 13 -19 22 -19 22 4 8 12 -8
22 -17 22 -21z m246 -26 c-4 -3 -14 2 -24 12 -16 18 -16 18 6 6 13 -6 21 -14
18 -18z m0 -50 l17 -25 -31 22 c-39 28 -48 41 -22 34 10 -3 27 -17 36 -31z
m-241 -25 c14 -24 25 -47 25 -52 0 -10 -60 77 -60 88 0 16 10 5 35 -36z m61 6
c-10 -10 -19 5 -10 18 6 11 8 11 12 0 2 -7 1 -15 -2 -18z m250 -24 c8 -14 -10
-11 -32 6 -18 13 -18 14 4 8 12 -3 25 -9 28 -14z m-398 -59 c0 -22 -1 -22 -8
5 -4 17 -8 39 -8 50 0 16 2 15 8 -5 4 -14 8 -36 8 -50z m51 -5 c1 -17 -1 -17
-9 -5 -5 8 -9 26 -9 40 0 23 1 23 9 5 5 -11 9 -29 9 -40z m-82 23 c-3 -8 -6
-5 -6 6 -1 11 2 17 5 13 3 -3 4 -12 1 -19z m213 -55 c0 -9 8 -22 18 -30 9 -8
11 -11 3 -7 -12 6 -25 8 -71 13 -13 1 -13 2 0 11 13 9 13 10 0 10 -12 1 -11 4
3 15 22 16 47 10 47 -12z m-117 0 c-7 -2 -13 -9 -13 -14 0 -6 5 -7 10 -4 14 9
52 -4 45 -16 -4 -5 -11 -9 -16 -9 -6 0 -8 4 -5 9 4 5 -4 7 -16 3 -20 -5 -19
-7 12 -19 29 -11 30 -12 7 -8 -19 4 -26 2 -22 -5 3 -5 0 -10 -8 -10 -8 0 -17
7 -21 15 -3 8 -13 15 -23 15 -15 1 -13 5 10 25 15 14 33 25 40 24 9 0 9 -2 0
-6z m137 -99 c0 -2 -9 0 -20 6 -11 6 -20 13 -20 16 0 2 9 0 20 -6 11 -6 20
-13 20 -16z m-90 -35 c0 -5 7 -5 17 -2 10 4 14 2 9 -5 -3 -6 -2 -13 4 -17 5
-3 10 -12 10 -18 -1 -7 -6 -5 -13 4 -7 9 -21 18 -31 20 -24 5 -33 26 -11 26 8
0 15 -4 15 -8z m-70 -59 c0 -5 -2 -10 -4 -10 -3 0 -8 5 -11 10 -3 6 -1 10 4
10 6 0 11 -4 11 -10z m117 -27 c-4 -3 -1 -13 6 -22 11 -14 10 -14 -5 -2 -16
12 -16 31 -1 31 4 0 3 -3 0 -7z m13 -53 c0 -5 -2 -10 -4 -10 -3 0 -8 5 -11 10
-3 6 -1 10 4 10 6 0 11 -4 11 -10z m-37 -32 c15 -11 27 -14 27 -8 0 7 5 6 14
-2 8 -7 12 -16 10 -20 -3 -4 1 -16 8 -27 17 -28 3 -38 -19 -14 -10 11 -30 25
-45 31 -25 10 -28 9 -28 -7 0 -10 3 -21 7 -25 12 -12 14 -48 2 -41 -6 4 -8 13
-5 21 3 8 1 14 -4 14 -6 0 -10 10 -10 23 -1 12 -7 33 -15 47 -8 14 -14 29 -15
33 0 12 40 -2 73 -25z m4 -143 c9 -25 -4 -29 -17 -6 -7 15 -7 21 0 21 6 0 13
-7 17 -15z m29 -47 c5 -7 2 -8 -7 -3 -11 6 -12 5 -1 -6 16 -17 15 -26 -3 -26
-9 0 -15 10 -15 24 0 24 14 31 26 11z m58 -34 c8 -21 -7 -17 -21 6 -11 16 -10
18 1 14 8 -3 17 -12 20 -20z m-49 -268 c12 -11 10 -17 -12 -37 -26 -24 -26
-24 -14 -1 7 13 8 22 2 22 -6 0 -8 7 -5 15 7 19 12 19 29 1z m-25 -77 c0 -4
-5 -11 -10 -14 -6 -4 -8 -10 -6 -14 3 -4 -1 -29 -9 -57 -7 -27 -14 -41 -14
-31 -1 10 -5 15 -11 12 -11 -7 -4 44 11 86 9 23 39 37 39 18z m-20 -164 c0 -8
-7 -15 -15 -15 -8 0 -15 -8 -15 -17 0 -10 -5 -25 -10 -33 -8 -11 -9 -8 -4 13
4 17 2 27 -5 27 -15 0 -14 27 2 33 25 11 47 7 47 -8z m-70 -215 c0 -5 -4 -10
-10 -10 -5 0 -10 5 -10 10 0 6 5 10 10 10 6 0 10 -4 10 -10z m90 -40 c25 -22
20 -26 -11 -10 -10 6 -19 15 -19 20 0 14 4 13 30 -10z"/>
<path d="M1860 1276 c0 -2 7 -7 16 -10 8 -3 12 -2 9 4 -6 10 -25 14 -25 6z"/>
<path d="M2140 2229 c0 -5 5 -7 10 -4 6 3 10 8 10 11 0 2 -4 4 -10 4 -5 0 -10
-5 -10 -11z"/>
<path d="M2580 1980 c0 -5 5 -10 10 -10 6 0 10 5 10 10 0 6 -4 10 -10 10 -5 0
-10 -4 -10 -10z"/>
<path d="M1105 1920 c-19 -8 -19 -9 3 -9 12 -1 22 4 22 9 0 6 -1 10 -2 9 -2 0
-12 -4 -23 -9z"/>
<path d="M1305 1910 c-10 -17 50 -25 150 -20 l60 2 -55 9 c-105 17 -149 19
-155 9z"/>
<path d="M384 1899 c-46 -13 -67 -40 -55 -72 17 -45 50 -58 132 -55 41 2 86 0
102 -5 26 -7 27 -6 27 32 0 32 3 39 15 35 8 -4 15 -10 15 -16 0 -5 -4 -6 -10
-3 -5 3 -10 2 -10 -4 0 -12 78 -12 85 -1 3 5 -3 11 -14 15 -11 3 -22 13 -25
21 -4 10 -13 13 -26 9 -14 -4 -20 -2 -20 9 0 9 -12 18 -27 21 -16 4 -47 10
-70 16 -49 11 -77 10 -119 -2z"/>
<path d="M660 1860 c19 -17 40 -30 46 -30 7 0 14 -7 18 -15 6 -17 -9 -21 -17
-5 -3 6 -4 5 -3 -2 2 -8 28 -15 72 -20 80 -7 121 -1 105 15 -15 15 -14 27 4
27 8 0 15 4 15 9 0 5 -9 7 -20 4 -15 -4 -20 0 -21 13 -1 14 -3 13 -9 -6 -4
-14 -8 -20 -9 -14 -2 20 -53 13 -59 -8 -5 -20 -29 -19 -24 1 1 6 -8 11 -20 11
-13 0 -43 11 -68 25 l-45 25 35 -30z"/>
<path d="M1055 1860 c3 -5 -1 -11 -7 -13 -7 -3 -3 -6 9 -6 29 -1 38 15 13 22
-11 3 -18 1 -15 -3z"/>
<path d="M975 1840 c-16 -7 -17 -9 -3 -9 9 -1 20 4 23 9 7 11 7 11 -20 0z"/>
<path d="M808 1753 c7 -3 16 -2 19 1 4 3 -2 6 -13 5 -11 0 -14 -3 -6 -6z"/>
<path d="M1796 485 c-9 -26 -7 -32 5 -12 6 10 9 21 6 23 -2 3 -7 -2 -11 -11z"/>
</g>
</svg>
