<?xml version="1.0" standalone="no"?>
<!DOCTYPE svg PUBLIC "-//W3C//DTD SVG 20010904//EN"
 "http://www.w3.org/TR/2001/REC-SVG-20010904/DTD/svg10.dtd">
<svg version="1.0" xmlns="http://www.w3.org/2000/svg"
 width="920.000000pt" height="1130.000000pt" viewBox="0 0 920.000000 1130.000000"
 preserveAspectRatio="xMidYMid meet">

<g transform="translate(0.000000,1130.000000) scale(0.100000,-0.100000)"
fill="#000000" stroke="none">
<path d="M4850 11195 c-14 -8 -35 -14 -48 -15 -21 0 -31 -3 -79 -28 -13 -7
-29 -12 -37 -12 -8 0 -17 -8 -20 -18 -3 -10 -30 -29 -58 -43 l-53 -25 -11 -86
c-6 -52 -17 -94 -26 -105 -17 -19 -29 -113 -14 -112 18 1 26 -26 10 -37 -12
-10 -11 -13 11 -18 35 -9 31 -22 -7 -30 -32 -7 -32 -8 -13 -22 11 -8 25 -12
32 -10 7 3 13 0 13 -7 1 -7 8 0 16 16 8 15 12 32 9 37 -3 6 -4 10 -1 10 3 0
12 -12 20 -27 l14 -28 11 28 c13 34 31 27 31 -13 0 -16 4 -31 8 -34 12 -7 43
69 36 88 -8 20 9 21 26 1 7 -9 19 -14 27 -11 7 3 14 -1 14 -9 1 -8 3 -19 4
-25 1 -5 3 -13 4 -17 1 -5 6 0 12 10 5 9 18 17 27 17 15 0 15 -2 2 -10 -8 -5
-12 -10 -7 -11 4 -1 11 -2 15 -3 5 0 16 -9 26 -18 10 -10 24 -18 33 -18 11 0
14 -6 10 -23 -4 -12 -2 -28 2 -36 6 -9 11 -4 19 18 9 25 8 30 -1 25 -8 -5 -8
-2 1 7 11 12 14 12 21 0 5 -7 14 -10 20 -6 7 4 18 1 26 -5 8 -6 20 -8 26 -4 8
4 9 3 5 -4 -4 -7 -2 -12 3 -12 6 0 11 7 11 16 0 8 4 13 9 9 6 -3 19 4 30 16
11 12 24 18 32 14 9 -6 7 -12 -6 -22 -12 -8 -14 -13 -6 -13 8 0 24 12 37 26
24 25 48 25 38 -1 -3 -7 4 -23 16 -35 18 -18 28 -20 65 -14 25 3 47 5 49 3 2
-2 12 3 22 12 11 9 38 26 61 38 l42 21 16 -24 c11 -16 22 -22 35 -19 21 6 36
33 18 33 -7 0 -4 6 5 13 11 8 19 39 27 97 13 107 13 96 -1 159 -10 45 -23 65
-76 122 -56 59 -71 69 -109 75 -25 3 -44 12 -44 19 0 21 -36 45 -68 45 -17 0
-34 5 -37 10 -3 6 -18 10 -33 10 -15 1 -38 7 -52 15 -17 10 -56 14 -120 14
-64 0 -103 -4 -120 -14z m-315 -405 c3 -5 1 -10 -4 -10 -6 0 -11 5 -11 10 0 6
2 10 4 10 3 0 8 -4 11 -10z"/>
<path d="M4474 10619 c-11 -18 6 -29 27 -18 12 6 18 13 15 17 -11 10 -36 11
-42 1z"/>
<path d="M4525 10591 c-2 -5 4 -11 15 -14 11 -3 20 -2 20 3 0 12 -28 21 -35
11z"/>
<path d="M4817 10586 c-4 -10 -3 -15 3 -11 6 3 10 0 10 -7 0 -9 3 -9 10 2 8
13 10 12 10 -3 0 -10 4 -16 10 -12 14 8 0 37 -16 31 -7 -3 -14 0 -17 7 -2 6
-6 3 -10 -7z"/>
<path d="M4470 10563 c0 -9 -7 -21 -17 -28 -15 -11 -15 -14 0 -36 10 -13 17
-30 16 -39 0 -11 -2 -11 -6 -2 -4 10 -8 10 -19 1 -8 -6 -14 -16 -14 -22 0 -6
-7 -18 -15 -27 -21 -23 -22 -104 -2 -125 17 -16 21 -33 18 -67 -2 -22 18 -33
32 -19 9 9 8 14 -3 21 -10 7 -11 10 -2 10 15 0 16 32 0 48 -10 10 -9 18 3 40
14 26 16 54 5 100 -6 28 10 29 24 2 13 -24 27 -18 42 18 6 16 12 22 15 15 3
-7 9 -13 14 -13 4 0 6 7 3 15 -4 8 -12 15 -20 15 -7 0 -18 10 -25 21 -8 15 -8
19 0 15 13 -8 14 3 3 22 -5 7 -16 10 -25 6 -22 -8 -22 5 -1 21 15 11 15 12 -5
18 -15 3 -21 1 -21 -10z"/>
<path d="M4387 10503 c-4 -3 -7 -12 -7 -20 0 -11 4 -11 20 -1 11 7 20 16 20
20 0 10 -24 10 -33 1z"/>
<path d="M5446 10464 c-8 -22 1 -31 16 -16 9 9 9 15 1 23 -7 7 -12 5 -17 -7z"/>
<path d="M4706 10285 c-3 -8 -12 -15 -20 -15 -16 0 -46 -48 -46 -73 0 -16 29
-77 36 -77 3 0 2 5 -1 10 -3 6 -2 10 3 10 5 0 12 -9 15 -20 9 -33 51 -41 150
-28 9 1 17 6 17 11 0 5 13 7 29 5 17 -2 29 -2 28 1 -1 3 1 7 6 9 4 1 6 1 5 0
-1 -2 3 -12 9 -23 6 -11 7 -29 3 -40 -4 -11 -3 -25 2 -32 11 -14 -19 -53 -37
-47 -6 3 -17 -6 -24 -20 -7 -13 -27 -34 -44 -46 -29 -22 -31 -22 -44 -5 -7 11
-13 14 -13 8 0 -7 4 -14 10 -18 5 -3 7 -12 4 -20 -4 -8 -10 -13 -14 -10 -4 3
-13 -7 -19 -23 -6 -15 -20 -39 -32 -53 -20 -25 -25 -57 -16 -104 5 -27 47 -95
58 -95 5 0 9 -8 9 -17 0 -12 -16 0 -50 36 -28 30 -50 63 -50 73 0 21 -15 24
-24 6 -4 -7 -4 -3 -2 10 3 14 -1 25 -10 29 -8 3 -11 9 -8 14 3 5 0 9 -6 9 -6
0 -9 4 -5 9 6 11 -13 25 -35 26 -12 0 -15 16 -17 73 -1 50 2 70 9 66 6 -4 8
-3 5 3 -4 6 1 13 11 15 25 7 24 34 -1 35 -11 1 -25 7 -31 14 -8 9 -8 10 1 5 8
-5 11 -2 7 7 -8 21 -32 17 -26 -5 4 -17 -4 -22 -38 -19 -10 0 -11 -1 -2 -5 6
-3 10 -10 6 -15 -3 -5 2 -9 10 -9 9 0 16 4 16 9 0 5 7 12 16 15 12 5 15 2 10
-10 -5 -13 -3 -14 7 -6 9 8 17 8 27 0 12 -8 12 -9 -2 -4 -10 3 -20 1 -23 -4
-4 -6 -15 -10 -26 -10 -10 0 -19 -6 -19 -12 0 -10 -3 -9 -9 1 -5 7 -14 10 -20
6 -9 -5 -7 -11 5 -20 16 -11 16 -14 -5 -48 -18 -30 -20 -40 -11 -57 16 -30 5
-36 -17 -10 -10 12 -25 26 -34 31 -30 16 2 -37 33 -56 40 -23 112 -113 114
-140 0 -13 -3 -22 -8 -19 -4 3 -6 10 -3 15 4 5 1 9 -4 9 -6 0 -11 -5 -11 -11
0 -5 -6 -7 -12 -3 -9 5 -8 2 1 -9 8 -10 10 -21 6 -25 -4 -4 -34 22 -66 58 -61
67 -109 144 -130 208 -12 40 -58 107 -66 98 -3 -3 4 -23 16 -45 11 -23 18 -47
15 -54 -2 -7 18 -44 46 -81 27 -37 50 -70 50 -73 0 -3 16 -28 35 -54 19 -27
35 -54 35 -59 0 -6 3 -10 8 -10 4 0 13 -10 20 -22 7 -13 -12 3 -42 35 -31 33
-56 55 -56 51 0 -4 -12 16 -27 46 -16 30 -32 58 -36 61 -5 3 -8 10 -8 15 2 15
-22 11 -43 -5 -11 -9 -16 -11 -13 -4 5 8 0 11 -13 10 -23 -1 -25 -10 -9 -39
l11 -21 -28 20 c-62 44 -104 62 -153 64 -28 2 -54 0 -57 -4 -4 -4 -20 -7 -36
-7 -27 0 -99 -38 -113 -60 -3 -5 3 -10 14 -10 11 0 23 5 26 10 8 14 74 13 116
-2 44 -14 93 -49 82 -57 -15 -11 -14 -41 1 -41 8 0 22 -7 30 -16 9 -8 21 -12
28 -8 10 6 10 5 1 -7 -9 -11 -8 -18 3 -33 8 -11 14 -15 14 -10 0 6 -6 16 -12
24 -11 12 -10 12 5 0 11 -8 16 -21 13 -32 -3 -15 -2 -17 9 -8 11 9 12 7 8 -10
-4 -13 0 -25 7 -30 8 -5 15 -19 17 -32 2 -18 1 -20 -7 -8 -5 8 -10 10 -10 4 0
-6 8 -18 17 -25 9 -8 14 -9 11 -4 -4 6 -2 17 4 25 8 12 9 12 4 -2 -3 -10 -1
-20 4 -23 6 -3 5 -16 -1 -32 -5 -15 -8 -32 -5 -39 6 -15 -25 -44 -44 -41 -8 2
-22 7 -30 12 -12 7 -13 6 -4 -6 7 -8 8 -22 3 -34 -5 -13 -8 -15 -8 -5 -1 13
-2 13 -11 0 -6 -9 -6 -18 0 -24 6 -6 10 -17 10 -26 0 -8 -9 -1 -21 18 -12 17
-23 32 -26 32 -2 0 -1 -4 2 -10 3 -5 1 -10 -5 -10 -6 0 -8 -5 -3 -12 11 -19
15 -50 5 -44 -5 3 -9 0 -9 -7 -3 -43 -11 -79 -21 -89 -6 -6 -8 -16 -6 -23 3
-6 -6 -22 -19 -35 -15 -15 -22 -31 -19 -43 4 -14 7 -16 13 -5 5 8 9 9 9 2 0
-20 -27 -37 -36 -23 -5 8 -3 9 6 4 9 -5 11 -4 6 4 -10 15 -29 3 -22 -15 3 -8
0 -14 -7 -14 -8 0 -8 -3 2 -9 19 -12 24 -61 5 -54 -10 4 -11 -2 -4 -26 6 -22
5 -35 -4 -43 -10 -10 -6 -17 18 -38 30 -25 47 -31 56 -19 3 4 13 -3 22 -16 17
-22 17 -24 0 -37 -15 -12 -16 -11 -3 5 12 16 9 22 -12 18 -5 -1 -5 4 -1 10 4
8 3 9 -5 5 -6 -4 -8 -13 -4 -19 4 -7 9 -21 10 -32 2 -11 9 -24 15 -30 8 -7 9
-6 3 4 -5 9 -4 12 3 7 7 -4 12 -18 12 -32 0 -14 -3 -23 -7 -21 -5 3 -8 -22 -8
-56 0 -45 -5 -67 -20 -86 -12 -15 -14 -22 -5 -16 12 7 13 6 3 -7 -7 -8 -11
-18 -8 -21 3 -4 2 -5 -2 -2 -11 9 -43 -27 -43 -49 0 -16 -2 -18 -9 -7 -11 17
-31 6 -32 -17 0 -9 -9 -35 -20 -57 -12 -26 -17 -31 -14 -15 4 22 3 21 -10 -5
-18 -38 -19 -59 -2 -49 9 6 9 5 0 -8 -7 -8 -10 -18 -6 -21 3 -4 -2 -9 -11 -13
-9 -3 -14 -10 -11 -14 3 -4 -11 -20 -30 -35 -20 -14 -33 -31 -29 -36 7 -11
-29 -45 -57 -54 -11 -4 -19 -11 -19 -16 0 -5 -15 -19 -34 -30 -34 -20 -72 -66
-63 -75 3 -3 40 12 83 32 80 38 194 59 194 36 0 -6 -8 -13 -17 -15 -14 -4 -13
-5 3 -6 12 0 24 6 28 14 6 17 36 21 36 4 0 -5 -4 -8 -9 -4 -5 3 -13 0 -17 -6
-5 -8 -3 -9 6 -4 10 6 12 4 6 -10 -6 -18 -6 -18 11 -3 10 9 21 17 26 17 4 1
10 1 15 2 4 0 68 -1 142 -3 289 -7 361 -4 435 20 39 12 88 27 110 33 104 27
110 29 195 67 25 11 76 30 114 43 39 14 82 36 98 52 28 28 28 30 28 148 0 87
4 128 15 149 19 37 75 80 104 80 12 0 30 4 39 9 26 13 108 19 124 10 11 -7 10
-11 -2 -20 -12 -8 -9 -9 13 -5 15 4 45 24 67 46 36 36 38 41 29 72 -5 18 -9
50 -9 70 0 20 -4 40 -10 43 -5 3 -10 12 -10 18 1 8 5 7 13 -3 13 -17 60 -20
74 -6 4 5 3 6 -3 3 -7 -4 -14 -1 -17 7 -8 21 31 7 48 -17 8 -12 15 -36 15 -55
0 -18 5 -43 11 -54 8 -16 8 -19 -1 -13 -9 6 -9 2 -1 -14 7 -11 9 -21 5 -21 -3
0 -1 -6 5 -14 9 -11 9 -16 0 -22 -8 -5 -9 -3 -4 6 6 9 4 11 -4 5 -9 -5 -9 -11
-3 -17 13 -13 4 -38 -13 -38 -17 0 -29 -50 -16 -63 21 -21 10 -49 -39 -98 -44
-44 -67 -81 -40 -64 6 3 10 1 10 -5 0 -6 5 -8 10 -5 6 4 7 12 3 18 -4 7 0 6
10 -2 19 -15 23 -26 6 -16 -6 4 -9 1 -8 -6 3 -14 -31 -53 -146 -172 -32 -34
-58 -65 -57 -69 1 -4 -5 -5 -13 -2 -8 3 -24 -3 -36 -15 -12 -11 -25 -18 -29
-16 -5 3 -11 -2 -14 -11 -3 -8 -10 -13 -15 -10 -5 3 -16 -5 -25 -19 -9 -14
-22 -25 -29 -25 -17 0 -59 -44 -52 -53 3 -4 2 -5 -1 -2 -4 2 -13 -3 -21 -11
-8 -8 -20 -11 -26 -7 -7 4 -8 0 -3 -12 5 -15 4 -16 -9 -5 -12 10 -16 9 -21 -4
-3 -9 -11 -13 -18 -9 -6 3 -3 -3 7 -15 11 -12 25 -18 35 -15 11 5 13 3 7 -8
-7 -11 -5 -11 10 1 10 8 20 14 22 13 10 -8 23 -1 17 8 -3 6 5 3 20 -6 20 -14
26 -14 26 -4 0 11 2 11 10 -1 12 -18 14 -40 2 -25 -11 15 -46 19 -36 4 4 -7 3
-10 -4 -5 -6 3 -14 2 -17 -4 -5 -8 -11 -8 -19 -1 -14 11 -26 5 -26 -13 0 -6 5
-4 11 4 9 12 10 13 7 0 -5 -15 -58 -23 -58 -8 0 4 -5 8 -11 8 -5 0 -7 -6 -3
-12 4 -7 -3 -4 -17 7 -14 12 -19 14 -11 4 11 -14 9 -17 -13 -22 -19 -3 -25 -1
-21 9 3 8 3 14 0 14 -2 0 -9 -12 -14 -26 -6 -14 -16 -24 -23 -21 -6 2 -22 -4
-33 -15 -21 -19 -21 -19 -20 2 0 11 6 24 12 28 15 9 22 47 9 47 -5 0 -8 -9 -7
-20 2 -17 1 -17 -7 -5 -10 13 -11 13 -12 0 0 -8 -5 -4 -9 10 -8 24 -8 24 -9 3
-1 -13 -6 -23 -12 -23 -5 0 -7 5 -3 12 4 7 3 8 -5 4 -16 -10 -3 -29 16 -22 9
4 11 2 7 -6 -4 -7 -3 -8 4 -4 8 5 10 1 5 -9 -3 -9 -9 -13 -12 -8 -3 4 -18 19
-33 32 l-28 24 -9 -24 c-5 -13 -10 -19 -10 -13 -1 6 -12 10 -26 9 -14 -2 -25
2 -25 8 0 6 -7 1 -16 -11 -15 -21 -17 -22 -34 -7 -15 14 -18 14 -30 0 -7 -8
-19 -15 -26 -15 -8 0 -14 -4 -14 -9 0 -5 -11 -8 -25 -5 -15 3 -25 0 -25 -7 0
-8 -5 -8 -15 1 -13 11 -14 10 -9 -5 6 -15 4 -16 -13 -7 -11 6 -25 7 -33 2 -8
-5 -17 -7 -21 -4 -4 2 -10 -3 -13 -12 -3 -8 -10 -12 -16 -9 -6 3 -13 0 -16 -8
-3 -9 -14 -12 -29 -9 -17 3 -27 -1 -31 -13 -5 -13 -9 -14 -15 -3 -7 10 -9 10
-9 0 0 -10 -5 -10 -20 -2 -20 11 -26 3 -20 -25 1 -5 -4 -5 -11 2 -15 15 -53
-2 -43 -20 5 -9 4 -9 -6 0 -10 9 -18 9 -34 1 -20 -11 -20 -10 -6 8 14 17 13
18 -1 7 -9 -7 -18 -10 -22 -7 -3 3 -3 -3 0 -15 3 -13 1 -21 -6 -21 -7 0 -10 4
-7 9 3 4 -6 7 -19 5 -14 -1 -25 3 -25 9 0 7 -5 4 -10 -5 -6 -10 -19 -15 -31
-13 -16 3 -19 0 -15 -13 5 -14 3 -13 -9 2 -9 12 -15 15 -15 7 0 -10 -3 -11
-14 -2 -11 9 -16 9 -22 0 -4 -7 -3 -9 3 -6 6 4 17 -1 24 -11 7 -9 9 -14 5 -10
-10 9 -36 -9 -36 -24 0 -5 6 -6 13 -2 6 4 9 4 5 -1 -4 -4 -3 -14 3 -21 7 -9 6
-12 -8 -9 -10 1 -17 8 -15 14 1 6 -2 11 -8 11 -15 0 -7 24 10 32 11 6 10 7 -5
5 -22 -3 -29 -42 -11 -67 10 -13 9 -13 -6 -1 -16 12 -19 10 -26 -10 l-9 -23
-5 22 c-4 12 -2 24 2 27 4 3 6 15 4 28 l-5 22 10 -22 c6 -13 13 -23 15 -23 8
0 -15 59 -25 66 -5 3 -6 -3 -2 -13 6 -16 5 -17 -12 -3 -11 9 -16 10 -11 3 6
-12 -4 -18 -26 -14 -4 0 -4 -7 -1 -16 5 -12 3 -14 -7 -8 -9 5 -11 4 -6 -4 4
-6 11 -9 15 -7 4 3 6 -5 5 -17 -1 -12 -3 -26 -3 -30 -1 -5 -7 -5 -13 0 -28 17
-40 12 -21 -10 10 -12 14 -19 9 -14 -6 4 -24 -7 -42 -24 l-32 -31 -16 28 c-8
16 -15 22 -16 14 0 -13 -2 -13 -11 0 -9 12 -10 12 -5 -3 3 -10 6 -24 7 -30 0
-7 4 -3 9 8 7 15 9 16 9 4 1 -19 -23 -42 -32 -32 -4 3 -7 0 -7 -8 0 -11 -2
-12 -9 -1 -6 10 -10 7 -15 -13 -6 -23 -9 -25 -23 -13 -9 7 -14 8 -10 2 7 -12
-21 -24 -56 -24 -10 0 -25 -7 -34 -15 -8 -8 -19 -13 -24 -10 -5 4 -9 1 -9 -5
0 -6 -4 -8 -10 -5 -5 3 -10 2 -10 -4 0 -5 6 -11 13 -14 6 -2 0 -4 -15 -3 -14
0 -24 4 -21 9 2 4 -3 7 -12 7 -9 0 -14 -4 -11 -8 2 -4 -4 -8 -14 -8 -10 0 -16
4 -14 8 3 4 -2 8 -11 8 -9 0 -13 -5 -9 -11 4 -8 0 -8 -15 0 -25 14 -28 0 -6
-23 8 -8 15 -18 15 -21 0 -4 14 -23 30 -42 35 -39 36 -48 14 -102 -16 -40 -15
-89 2 -228 4 -39 1 -66 -15 -110 -12 -33 -21 -68 -21 -79 0 -27 -22 -83 -48
-124 -25 -40 -24 -30 -22 -183 1 -97 -2 -125 -18 -160 -39 -85 -45 -121 -40
-239 5 -114 -2 -149 -51 -263 -5 -11 -15 -46 -22 -78 -7 -32 -16 -60 -21 -63
-14 -9 -9 -22 21 -56 l28 -33 5 -301 c4 -241 3 -308 -8 -334 -18 -42 -18 -120
0 -145 7 -11 16 -33 19 -50 3 -16 11 -52 17 -80 6 -27 15 -79 20 -115 8 -58
13 -89 23 -140 2 -8 11 -31 19 -49 9 -19 14 -40 11 -46 -2 -7 6 -38 18 -69 26
-71 24 -182 -4 -210 -19 -20 -22 -32 -7 -41 6 -3 10 -25 10 -49 0 -23 3 -46 7
-50 4 -3 8 -26 9 -51 1 -46 46 -166 73 -198 43 -51 55 -171 21 -214 -11 -14
-22 -41 -25 -62 -3 -20 -11 -44 -16 -54 -6 -11 -10 -50 -10 -89 0 -38 -4 -77
-8 -86 -20 -40 -31 -92 -25 -116 3 -15 1 -32 -5 -40 -6 -7 -13 -56 -14 -107
-2 -52 -7 -103 -12 -113 -7 -16 -5 -18 8 -13 22 8 21 1 -2 -29 -15 -19 -19
-43 -20 -120 -1 -54 -6 -105 -12 -115 -5 -10 -9 -51 -9 -91 0 -68 2 -76 28
-101 24 -23 29 -36 30 -84 l1 -56 -74 -77 c-41 -42 -75 -83 -75 -91 0 -25 63
-79 92 -79 15 0 30 5 33 10 9 14 78 12 98 -3 16 -11 17 -37 13 -317 -2 -168
-9 -350 -15 -405 -7 -55 -11 -203 -11 -328 1 -191 -1 -232 -14 -246 -11 -12
-14 -32 -10 -81 2 -36 6 -86 7 -112 4 -56 13 -69 80 -103 45 -24 59 -27 112
-22 49 5 69 2 107 -16 29 -13 48 -29 48 -39 0 -9 3 -24 6 -33 9 -24 82 -55
129 -55 22 0 49 -6 60 -14 12 -8 62 -17 118 -21 53 -4 100 -11 103 -16 3 -5
25 -9 49 -9 24 0 47 -4 50 -10 4 -6 70 -10 164 -10 166 0 197 6 236 50 10 11
23 20 30 20 7 0 20 9 30 20 10 11 24 20 31 20 18 0 54 49 54 75 0 12 -9 30
-20 40 -15 13 -20 31 -21 69 -1 67 -16 105 -62 155 -46 51 -94 81 -128 81 -28
0 -31 4 -129 126 -25 31 -81 94 -125 141 -49 52 -80 93 -80 106 0 25 21 29
248 48 134 11 133 12 224 -33 12 -6 77 -12 145 -14 68 -2 196 -6 286 -10 117
-5 167 -3 175 5 6 6 28 11 48 11 21 0 41 5 44 10 3 6 20 10 36 10 43 0 65 14
148 96 66 66 73 75 60 91 -12 15 -12 16 4 10 12 -5 17 -1 17 13 0 25 -6 25
-37 0 -31 -24 -51 -26 -60 -5 -6 18 23 55 44 55 7 0 13 2 13 4 0 4 -71 133
-91 164 -21 34 -65 40 -292 41 -118 0 -215 5 -226 11 -14 7 -25 5 -45 -11 -14
-11 -26 -25 -26 -30 0 -17 29 -9 44 13 13 18 19 20 38 10 58 -28 96 -36 112
-23 8 7 19 10 24 8 8 -6 190 -8 272 -4 40 2 45 -1 54 -26 14 -40 -11 -61 -73
-63 -27 -1 -73 -5 -103 -9 -29 -4 -80 -9 -113 -11 -33 -2 -80 -6 -104 -10 -41
-7 -44 -6 -39 14 7 26 -14 46 -41 37 -12 -3 -38 3 -62 15 -24 11 -60 20 -81
20 -21 0 -38 2 -38 5 0 6 25 35 63 75 l29 30 -27 32 c-48 57 -125 93 -125 58
0 -24 -49 -34 -58 -12 -3 9 0 18 6 20 21 7 2 22 -26 22 -23 0 -29 6 -40 40 -6
22 -12 50 -12 62 -1 39 -45 157 -69 182 -21 23 -24 36 -26 143 -2 71 1 123 7
131 6 6 26 12 45 12 18 0 56 11 83 25 47 24 50 28 50 64 0 24 -9 52 -26 76
-39 58 -31 69 49 73 61 3 69 6 84 30 9 15 38 50 65 78 26 29 50 65 54 80 4 16
12 36 19 44 7 8 15 36 17 61 3 25 17 69 32 98 14 30 26 69 26 91 0 21 4 41 9
44 4 3 16 32 25 64 9 32 27 73 41 92 14 19 25 41 25 50 0 9 4 20 9 26 6 5 12
99 15 209 4 206 11 281 27 291 5 3 9 33 9 67 0 64 15 122 39 151 10 12 15 52
17 129 1 62 7 166 13 232 6 66 15 170 20 230 13 149 24 214 44 252 11 21 17
55 17 97 0 36 4 67 8 70 5 3 9 59 10 124 1 88 6 131 19 163 22 56 20 274 -3
300 -8 9 -14 37 -14 71 0 40 -5 62 -20 81 -17 22 -20 40 -20 141 0 99 3 123
21 158 16 32 19 51 15 87 -4 25 -11 82 -16 126 -5 44 -14 105 -20 135 -6 30
-14 79 -18 108 -8 49 -13 57 -87 127 -43 41 -80 75 -83 75 -2 0 -1 -16 3 -36
5 -28 3 -35 -7 -32 -16 6 -32 166 -18 183 6 7 5 16 -2 23 -6 6 -13 41 -15 78
-3 51 -10 74 -25 89 -11 11 -33 40 -49 65 -16 25 -41 61 -55 80 -21 28 -25 43
-20 75 12 89 11 159 -2 184 -23 44 -6 213 29 282 26 53 46 121 41 146 -6 29
167 111 210 99 13 -3 34 -22 48 -42 27 -41 129 -141 165 -163 13 -8 29 -25 36
-37 12 -23 123 -84 152 -84 9 0 27 -5 41 -11 38 -18 72 -3 127 54 75 78 97
123 105 220 3 45 11 90 16 100 5 10 8 45 7 78 -1 35 3 65 9 71 14 14 16 129 2
178 -9 36 -15 63 -26 115 -3 17 -9 39 -14 50 -5 11 -21 52 -36 90 -14 39 -43
104 -63 145 -39 78 -50 110 -76 224 -9 38 -20 78 -25 90 -4 11 -14 41 -21 66
-7 25 -26 69 -42 98 -33 61 -67 148 -67 174 0 10 -4 26 -9 36 -28 55 -61 133
-61 144 0 14 -19 38 -30 38 -10 0 2 -75 14 -83 8 -6 7 -10 -3 -14 -7 -3 -32
-23 -54 -44 -22 -22 -51 -42 -66 -45 -34 -7 -83 -33 -98 -52 -10 -13 -17 -13
-38 -4 -21 10 -24 15 -15 31 13 25 13 51 0 51 -5 0 -10 -13 -10 -30 0 -16 -4
-30 -9 -30 -17 0 -32 29 -26 52 4 17 -5 34 -38 71 -23 26 -48 47 -54 47 -6 0
-16 7 -23 15 -7 8 -20 15 -29 15 -9 0 -41 15 -72 34 -36 21 -60 31 -66 25 -15
-15 -90 1 -120 27 -15 12 -30 21 -34 18 -4 -2 -9 1 -11 7 -2 6 -19 11 -37 12
-21 1 -36 8 -39 17 -3 8 -1 12 3 7 5 -4 15 -1 24 7 9 8 43 17 76 19 131 11
194 37 90 37 -30 0 -64 5 -75 10 -47 23 -57 26 -98 20 -24 -4 -45 -3 -48 1 -9
16 22 22 100 20 44 -1 94 1 110 5 30 6 29 7 -22 26 -29 11 -50 23 -47 28 3 4
24 11 47 14 36 6 88 34 88 48 0 2 -10 4 -21 5 -12 1 -39 13 -60 27 -21 15 -48
26 -59 26 -40 0 -21 37 48 94 66 54 69 57 71 103 1 26 8 54 17 64 23 25 14 50
-26 76 -19 12 -41 28 -48 34 -7 5 -29 13 -50 16 -20 4 -41 12 -47 19 -11 14
-83 33 -126 34 -15 0 -29 -7 -33 -15z m21 -61 c-3 -3 -12 -4 -19 -1 -8 3 -5 6
6 6 11 1 17 -2 13 -5z m17 -63 c0 -11 3 -21 8 -21 4 0 8 -6 8 -12 0 -7 -12 -1
-26 14 -15 14 -23 31 -19 37 11 18 30 7 29 -18z m46 8 c0 -5 -4 -9 -10 -9 -5
0 -10 7 -10 16 0 8 5 12 10 9 6 -3 10 -10 10 -16z m89 -22 c12 -15 5 -28 -12
-22 -7 2 -24 6 -39 9 -16 4 -28 11 -28 16 0 15 66 12 79 -3z m-46 -357 c7 0
-4 -10 -23 -22 -19 -12 -39 -28 -43 -35 -9 -14 -27 -9 -27 8 0 19 51 61 66 55
9 -3 21 -6 27 -6z m-548 -230 c3 -6 -1 -7 -9 -4 -18 7 -21 14 -7 14 6 0 13 -4
16 -10z m42 -16 c-3 -3 -12 -4 -19 -1 -8 3 -5 6 6 6 11 1 17 -2 13 -5z m931
-212 c33 -63 36 -95 12 -125 -23 -29 -40 -28 -40 4 0 10 -9 36 -20 56 -11 21
-20 43 -20 50 0 12 34 53 44 53 2 0 13 -17 24 -38z m-1016 -57 c3 -15 1 -22
-5 -18 -6 4 -8 0 -4 -11 4 -10 3 -15 -3 -11 -5 3 -7 20 -4 38 4 30 4 31 -6 7
-6 -14 -9 -33 -6 -42 6 -25 1 -22 -19 8 -9 15 -12 23 -6 20 6 -4 15 4 21 19
12 30 26 26 32 -10z m-76 -52 c2 -10 -2 -23 -7 -30 -6 -7 -7 -18 -3 -25 5 -10
4 -10 -6 -1 -10 9 -10 16 -2 26 6 7 10 24 7 37 -2 12 -1 20 2 16 4 -4 8 -14 9
-23z m1402 -10 c-10 -13 -10 -15 0 -9 7 4 20 5 28 2 12 -5 11 -13 -6 -57 -10
-29 -17 -56 -14 -61 3 -4 18 -1 34 7 16 8 31 11 34 7 8 -14 -28 -81 -46 -87
-18 -6 -25 -25 -10 -25 15 0 11 -44 -5 -55 -23 -17 -50 -7 -74 26 -11 16 -26
29 -34 29 -7 0 -15 5 -17 10 -2 6 -21 17 -43 25 -26 9 -39 19 -38 30 0 9 -2
14 -5 11 -14 -15 -42 29 -42 66 l0 39 38 -7 c51 -9 89 -30 108 -59 22 -34 29
-32 43 15 6 22 17 40 23 40 6 0 3 9 -8 21 -19 21 -18 21 11 46 31 27 48 16 23
-14z m-550 -191 c2 -7 -3 -12 -12 -12 -9 0 -16 7 -16 16 0 17 22 14 28 -4z
m-960 -204 c-2 -7 2 -12 9 -13 20 0 37 -22 24 -30 -6 -3 -10 -2 -9 3 2 6 0 9
-3 9 -11 -3 -39 25 -33 34 8 13 14 11 12 -3z m1742 -383 c0 -19 -46 -49 -60
-40 -8 5 -4 15 11 31 25 27 49 31 49 9z m-24 -103 c-23 -23 -33 -6 -10 19 12
13 20 16 22 9 3 -7 -3 -19 -12 -28z m-1755 -9 c-12 -20 -14 -14 -5 12 4 9 9
14 11 11 3 -2 0 -13 -6 -23z m1835 -20 c-4 -4 -11 -1 -16 7 -16 25 -11 35 7
17 9 -9 13 -20 9 -24z m-246 -112 c-11 -22 -50 -51 -93 -69 -25 -11 -28 -10
-25 4 2 8 17 23 33 32 17 9 32 20 35 23 7 8 44 28 53 29 4 0 3 -9 -3 -19z
m-1690 -45 c0 -2 -8 -10 -17 -17 -16 -13 -17 -12 -4 4 13 16 21 21 21 13z
m1552 -48 c-8 -8 -9 -4 -5 13 4 13 8 18 11 10 2 -7 -1 -18 -6 -23z m-168 -131
c7 -6 6 -7 -4 -4 -8 2 -16 14 -17 28 -1 19 -1 20 4 4 3 -11 10 -24 17 -28z
m-4 -32 c-10 -12 -4 -25 12 -25 5 0 6 6 2 13 -4 6 -3 8 2 4 16 -15 12 -58 -7
-67 -13 -8 -17 -6 -15 6 1 9 9 20 17 25 12 7 12 9 -1 9 -9 0 -21 -5 -28 -12
-7 -7 -12 -10 -13 -7 -7 37 -3 56 10 51 8 -3 12 -1 8 5 -3 5 0 10 8 10 10 0
12 -4 5 -12z m-50 -41 c0 -8 -19 -13 -24 -6 -3 5 1 9 9 9 8 0 15 -2 15 -3z
m-110 -14 c0 -5 -2 -10 -4 -10 -3 0 -8 5 -11 10 -3 6 -1 10 4 10 6 0 11 -4 11
-10z m46 -2 c3 -4 -1 -5 -10 -4 -8 1 -18 5 -22 8 -3 4 1 5 10 4 8 -1 18 -5 22
-8z m-453 -93 c-3 -9 -8 -14 -10 -11 -3 3 -2 9 2 15 9 16 15 13 8 -4z m-539
-186 c-7 -12 -38 -3 -42 12 -3 11 -2 12 6 1 7 -11 11 -10 16 4 6 15 9 16 16 4
5 -8 7 -17 4 -21z m-196 -94 c-3 -3 -9 2 -12 12 -6 14 -5 15 5 6 7 -7 10 -15
7 -18z m947 -585 c3 -5 1 -10 -4 -10 -6 0 -11 5 -11 10 0 6 2 10 4 10 3 0 8
-4 11 -10z m5 -155 c0 -8 -4 -15 -10 -15 -5 0 -10 7 -10 15 0 8 5 15 10 15 6
0 10 -7 10 -15z m81 -50 c-1 -15 -24 -12 -29 3 -3 9 2 13 12 10 10 -1 17 -7
17 -13z m199 -125 c0 -11 -4 -20 -10 -20 -5 0 -10 9 -10 20 0 11 5 20 10 20 6
0 10 -9 10 -20z m68 -153 c2 -12 -3 -17 -17 -17 -23 0 -24 1 -15 25 8 19 28
15 32 -8z m-3 -67 c-3 -5 -10 -10 -16 -10 -5 0 -9 5 -9 10 0 6 7 10 16 10 8 0
12 -4 9 -10z m-775 -4608 c0 -5 -12 -14 -27 -21 -28 -13 -28 -13 -9 8 20 22
36 27 36 13z m480 -309 c0 -14 -25 -22 -57 -19 -33 3 -38 13 -19 35 15 16 22
17 47 8 16 -6 29 -17 29 -24z m-90 -68 c0 -8 -6 -15 -14 -15 -17 0 -28 14 -19
24 12 12 33 6 33 -9z"/>
<path d="M5265 10207 c-16 -5 -43 -13 -60 -19 -16 -6 -43 -12 -58 -13 -35 -2
-50 -17 -41 -39 6 -16 16 -17 83 -12 42 4 94 8 116 9 24 1 40 7 40 14 0 7 10
20 23 28 12 9 22 22 22 28 0 14 -81 17 -125 4z"/>
<path d="M4462 10135 c0 -16 2 -22 5 -12 2 9 2 23 0 30 -3 6 -5 -1 -5 -18z"/>
<path d="M5170 10075 c14 -16 40 -20 40 -6 0 9 -24 21 -42 21 -6 0 -6 -6 2
-15z"/>
<path d="M4674 10052 c17 -20 18 -22 3 -16 -12 4 -17 2 -15 -6 2 -7 -3 -15
-11 -18 -9 -3 -11 0 -6 9 6 10 5 11 -3 4 -6 -5 -12 -30 -13 -53 -3 -42 -2 -44
36 -62 l40 -19 7 26 c4 14 14 30 23 37 19 14 11 66 -11 66 -7 0 -17 6 -21 13
-4 6 -17 19 -28 27 -20 15 -20 15 -1 -8z"/>
<path d="M5228 10063 c7 -3 16 -2 19 1 4 3 -2 6 -13 5 -11 0 -14 -3 -6 -6z"/>
<path d="M4807 10048 c-7 -5 2 -7 21 -6 19 1 35 5 37 8 6 9 -44 7 -58 -2z"/>
<path d="M4350 10022 c0 -18 0 -35 -1 -39 0 -4 5 -9 11 -11 8 -3 10 7 7 32 -6
48 -17 59 -17 18z"/>
<path d="M5155 10040 c3 -5 10 -10 16 -10 5 0 9 5 9 10 0 6 -7 10 -16 10 -8 0
-12 -4 -9 -10z"/>
<path d="M4910 9998 c0 -19 2 -20 10 -8 13 19 13 30 0 30 -5 0 -10 -10 -10
-22z"/>
<path d="M4654 9848 c-10 -16 -6 -77 6 -97 7 -12 10 -5 10 24 0 22 3 50 6 63
7 23 -9 31 -22 10z"/>
<path d="M4303 9785 c0 -8 5 -11 11 -7 6 4 14 7 18 7 18 0 14 11 -6 13 -14 1
-23 -4 -23 -13z"/>
<path d="M5150 9720 c0 -5 7 -10 16 -10 8 0 12 5 9 10 -3 6 -10 10 -16 10 -5
0 -9 -4 -9 -10z"/>
<path d="M4103 9651 c0 -11 5 -18 9 -15 4 3 5 11 1 19 -7 21 -12 19 -10 -4z"/>
<path d="M5577 9498 c-3 -9 3 -14 14 -14 11 0 18 5 16 10 -5 16 -24 18 -30 4z"/>
<path d="M5434 9436 c-19 -15 -19 -15 0 -12 11 2 22 8 24 14 5 16 0 15 -24 -2z"/>
<path d="M4263 9400 c-3 -11 -9 -18 -13 -15 -5 3 -6 -5 -2 -17 4 -16 2 -19 -9
-13 -11 7 -12 6 -2 -7 7 -8 9 -19 5 -24 -4 -4 1 -3 10 5 9 7 15 18 12 25 -3 7
0 25 5 39 6 15 8 27 5 27 -3 0 -8 -9 -11 -20z"/>
<path d="M5496 9373 c-10 -25 9 -37 28 -18 9 9 16 21 16 26 0 16 -38 10 -44
-8z"/>
<path d="M5570 9350 c0 -6 -4 -9 -9 -5 -5 3 -12 1 -15 -4 -4 -5 -2 -12 3 -15
5 -4 13 -1 17 5 4 8 9 7 15 -2 7 -11 9 -10 9 3 0 9 -4 20 -10 23 -5 3 -10 1
-10 -5z"/>
<path d="M5470 9325 c0 -7 30 -13 34 -7 3 4 -4 9 -15 9 -10 1 -19 0 -19 -2z"/>
<path d="M4112 9170 c0 -14 2 -19 5 -12 2 6 2 18 0 25 -3 6 -5 1 -5 -13z"/>
<path d="M3590 9121 c-25 -9 -50 -19 -57 -24 -14 -9 -48 -115 -39 -124 3 -4
21 -1 39 5 19 7 42 12 53 12 34 0 61 27 68 67 3 21 9 48 12 61 8 27 -9 27 -76
3z"/>
<path d="M4087 9122 c-14 -15 -14 -19 0 -37 9 -11 13 -13 10 -5 -2 8 2 22 10
32 19 22 0 32 -20 10z m23 4 c0 -2 -8 -10 -17 -17 -16 -13 -17 -12 -4 4 13 16
21 21 21 13z"/>
<path d="M3817 9120 c4 -4 46 -19 92 -34 58 -19 86 -25 94 -17 12 12 -12 23
-100 45 -61 15 -99 17 -86 6z"/>
<path d="M3816 9061 c7 -7 89 -37 143 -52 8 -2 16 3 18 11 3 12 -13 20 -61 33
-70 19 -116 22 -100 8z"/>
<path d="M3670 9021 c0 -5 12 -8 27 -7 28 3 43 0 163 -33 87 -24 103 -25 98
-9 -8 24 -288 72 -288 49z"/>
<path d="M3565 8954 l-60 -13 65 4 c36 2 87 4 114 4 27 1 47 3 44 6 -11 11
-107 10 -163 -1z"/>
<path d="M3480 8940 c0 -5 5 -10 10 -10 6 0 10 5 10 10 0 6 -4 10 -10 10 -5 0
-10 -4 -10 -10z"/>
<path d="M3776 8941 c8 -8 97 -30 138 -34 10 -1 21 3 23 9 2 7 -20 16 -53 23
-68 13 -122 15 -108 2z"/>
<path d="M4036 8927 c3 -10 9 -15 12 -12 3 3 0 11 -7 18 -10 9 -11 8 -5 -6z"/>
<path d="M3578 8903 c7 -3 16 -2 19 1 4 3 -2 6 -13 5 -11 0 -14 -3 -6 -6z"/>
<path d="M3649 8897 c5 -5 19 -7 32 -5 20 3 19 5 -9 9 -20 3 -29 2 -23 -4z"/>
<path d="M3455 8890 c-3 -5 1 -10 9 -10 9 0 16 5 16 10 0 6 -4 10 -9 10 -6 0
-13 -4 -16 -10z"/>
<path d="M3716 8891 c8 -8 38 -14 168 -38 21 -4 27 -2 24 8 -3 8 -34 18 -79
26 -92 14 -126 16 -113 4z"/>
<path d="M3480 8852 c-19 -2 -39 -8 -45 -14 -7 -8 -4 -9 8 -4 10 3 53 6 94 6
42 0 74 3 70 6 -7 7 -79 11 -127 6z"/>
<path d="M4023 8845 c0 -8 4 -12 9 -9 5 3 6 10 3 15 -9 13 -12 11 -12 -6z"/>
<path d="M3628 8843 c7 -3 16 -2 19 1 4 3 -2 6 -13 5 -11 0 -14 -3 -6 -6z"/>
<path d="M3745 8831 c48 -20 136 -44 141 -38 13 13 -9 26 -54 32 -102 14 -108
15 -87 6z"/>
<path d="M5381 8558 c-11 -29 -8 -32 24 -24 16 4 25 13 25 26 0 28 -38 26 -49
-2z"/>
<path d="M3937 8227 c-3 -8 0 -14 7 -14 7 0 13 6 13 14 0 7 -4 13 -8 13 -4 0
-9 -6 -12 -13z"/>
<path d="M3923 8185 c0 -8 4 -12 9 -9 5 3 6 10 3 15 -9 13 -12 11 -12 -6z"/>
<path d="M4253 7973 c9 -2 23 -2 30 0 6 3 -1 5 -18 5 -16 0 -22 -2 -12 -5z"/>
<path d="M4308 7973 c7 -3 16 -2 19 1 4 3 -2 6 -13 5 -11 0 -14 -3 -6 -6z"/>
<path d="M4337 7966 c-3 -8 0 -17 8 -20 11 -4 25 13 25 30 0 11 -29 2 -33 -10z"/>
<path d="M5199 7853 c-13 -16 -12 -17 4 -4 9 7 17 15 17 17 0 8 -8 3 -21 -13z"/>
<path d="M4993 7825 c-3 -9 -3 -18 -1 -21 3 -3 8 4 11 16 6 23 -1 27 -10 5z"/>
<path d="M5011 7804 c0 -11 3 -14 6 -6 3 7 2 16 -1 19 -3 4 -6 -2 -5 -13z"/>
<path d="M3880 7584 c0 -1 8 -8 17 -15 9 -8 14 -9 10 -2 -4 6 -1 13 5 16 7 3
3 4 -9 4 -13 -1 -23 -2 -23 -3z"/>
<path d="M3861 7486 c-8 -10 -9 -16 -1 -21 6 -3 7 -12 3 -18 -3 -7 3 -3 15 7
17 15 19 22 11 33 -14 16 -14 16 -28 -1z m16 -11 c0 -8 -4 -12 -9 -9 -5 3 -6
10 -3 15 9 13 12 11 12 -6z"/>
</g>
</svg>
